HIERARCHY
ROOT Hips
{
	OFFSET -3.958830 18.904000 13.208200
	CHANNELS 6 Xposition Yposition Zposition Zrotation Yrotation Xrotation 
	JOINT LHipJoint
	{
		OFFSET 0.000000 0.000000 0.000000
		CHANNELS 3 Zrotation Yrotation Xrotation
		JOINT LeftUpLeg
		{
			OFFSET 1.800000 -1.400000 0.085000
			CHANNELS 3 Zrotation Yrotation Xrotation
			JOINT LeftLeg
			{
				OFFSET 2.215000 -6.000000 0.000000
				CHANNELS 3 Zrotation Yrotation Xrotation
				JOINT LeftFoot
				{
					OFFSET 2.500000 -6.900000 0.000000
					CHANNELS 3 Zrotation Yrotation Xrotation
					JOINT LeftToeBase
					{
						OFFSET 0.200000 -0.500000 1.950000
						CHANNELS 3 Zrotation Yrotation Xrotation
						End Site
						{
							OFFSET 0.000000 0.000000 0.000000
						}
					}
				}
			}
		}
	}
	JOINT RHipJoint
	{
		OFFSET 0.000000 0.000000 0.000000
		CHANNELS 3 Zrotation Yrotation Xrotation
		JOINT RightUpLeg
		{
			OFFSET -1.800000 -1.400000 0.085000
			CHANNELS 3 Zrotation Yrotation Xrotation
			JOINT RightLeg
			{
				OFFSET -2.215000 -6.000000 0.000000
				CHANNELS 3 Zrotation Yrotation Xrotation
				JOINT RightFoot
				{
					OFFSET -2.500000 -6.900000 0.000000
					CHANNELS 3 Zrotation Yrotation Xrotation
					JOINT RightToeBase
					{
						OFFSET -0.200000 -0.500000 1.950000
						CHANNELS 3 Zrotation Yrotation Xrotation
						End Site
						{
							OFFSET 0.000000 0.000000 0.000000
						}
					}
				}
			}
		}
	}
	JOINT LowerBack
	{
		OFFSET 0.000000 0.000000 0.000000
		CHANNELS 3 Zrotation Yrotation Xrotation
		JOINT Spine
		{
			OFFSET -0.087000 1.940000 -0.288900
			CHANNELS 3 Zrotation Yrotation Xrotation
			JOINT Spine1
			{
				OFFSET 0.000000 1.950000 0.060000
				CHANNELS 3 Zrotation Yrotation Xrotation
				JOINT Neck
				{
					OFFSET 0.000000 0.000000 0.000000
					CHANNELS 3 Zrotation Yrotation Xrotation
					JOINT Neck1
					{
						OFFSET 0.000000 1.600000 0.340000
						CHANNELS 3 Zrotation Yrotation Xrotation
						JOINT Head
						{
							OFFSET 0.000000 1.667000 -0.240000
							CHANNELS 3 Zrotation Yrotation Xrotation
							End Site
							{
								OFFSET 0.000000 0.000000 0.000000
							}
						}
					}
				}
				JOINT LeftShoulder
				{
					OFFSET 0.000000 0.000000 0.000000
					CHANNELS 3 Zrotation Yrotation Xrotation
					JOINT LeftArm
					{
						OFFSET 2.700000 1.550000 -0.730000
						CHANNELS 3 Zrotation Yrotation Xrotation
						JOINT LeftForeArm
						{
							OFFSET 5.450000 0.000000 0.000000
							CHANNELS 3 Zrotation Yrotation Xrotation
							JOINT LeftHand
							{
								OFFSET 3.450000 0.000000 0.000000
								CHANNELS 3 Zrotation Yrotation Xrotation
								JOINT LeftHandIndex1
								{
									OFFSET 0.750000 0.000000 0.000000
									CHANNELS 3 Zrotation Yrotation Xrotation
									End Site
									{
										OFFSET 0.000000 0.000000 0.000000
									}
								}
							}
						}
					}
				}
				JOINT RightShoulder
				{
					OFFSET 0.000000 0.000000 0.000000
					CHANNELS 3 Zrotation Yrotation Xrotation
					JOINT RightArm
					{
						OFFSET -2.700000 1.550000 -0.730000
						CHANNELS 3 Zrotation Yrotation Xrotation
						JOINT RightForeArm
						{
							OFFSET -5.450000 0.000000 0.000000
							CHANNELS 3 Zrotation Yrotation Xrotation
							JOINT RightHand
							{
								OFFSET -3.450000 0.000000 0.000000
								CHANNELS 3 Zrotation Yrotation Xrotation
								JOINT RightHandIndex1
								{
									OFFSET -0.750000 0.000000 0.000000
									CHANNELS 3 Zrotation Yrotation Xrotation
									End Site
									{
										OFFSET 0.000000 0.000000 0.000000
									}
								}
							}
						}
					}
				}
			}
		}
	}
}
MOTION
Frames: 13
Frame Time: 0.016667
0.527650 17.059370 -1.433540 -8.101880 5.873459 11.370505 -15.265984 12.392935 2.047441 0.652747 -0.847496 -8.093194 -3.386267 4.756214 11.649110 -0.615288 4.664461 3.677855 0.337100 -0.128150 0.156150 18.509797 -9.424014 4.218911 0.816075 7.803052 -36.912743 10.858373 -0.449137 -7.838379 0.525502 -2.630936 3.834356 0.337070 1.325660 0.508190 -3.883223 -1.081115 -7.046273 5.258102 -1.045831 -0.622355 4.741718 -3.380661 9.574467 -0.289312 3.320610 -6.570992 5.272880 2.742550 23.144553 -7.325350 5.392380 12.268730 5.008116 -9.952225 0.716271 0.706816 -27.628274 3.545608 22.840487 -22.357025 -3.747050 -4.829577 3.369463 -0.392220 1.256300 -0.932730 0.504320 -3.289387 7.108729 0.849497 18.383295 32.193599 6.548816 -31.757514 27.418722 -9.491206 1.579735 -2.361688 -0.421240 0.227280 -0.041260 -0.079060 
0.551720 16.999660 -1.434290 -8.283062 5.857898 10.835435 -15.256307 12.454907 2.084760 0.800349 -0.823279 -7.736499 -3.472207 4.841297 12.177296 -0.656947 4.683220 3.601739 0.458190 -0.036670 0.279940 18.505123 -9.498830 4.207837 1.369692 8.055367 -38.334690 10.000134 -0.976148 -4.133158 0.501513 -2.348096 3.860982 0.368220 1.188050 0.540770 -3.891868 -1.058996 -7.064797 5.920483 -1.190333 0.287203 4.958577 -3.498876 9.727154 -0.324940 3.189096 -6.774768 5.042767 2.666635 23.637225 -7.400580 5.178130 10.062740 4.622300 -10.946959 0.882404 1.393924 -27.645332 3.470924 21.381656 -19.937409 -3.311529 -4.762829 3.370282 -0.281650 1.157470 -0.829280 0.484080 -2.830415 8.253335 1.052225 16.265144 31.822594 5.439850 -31.728619 26.012676 -9.162767 1.597970 -2.350243 -0.374200 0.183880 -0.079490 -0.128520 
0.604140 16.938240 -1.444170 -8.892908 6.123252 9.857019 -15.222261 12.549332 2.104686 0.976024 -0.837080 -7.714215 -2.932116 4.890907 13.508242 -0.753801 4.725447 3.532105 0.524930 -0.005390 0.401120 18.516196 -9.583295 4.292118 1.993382 8.832562 -41.063446 9.475565 -2.143859 4.256438 0.473088 -2.110017 3.876565 0.377490 1.082380 0.540630 -3.964498 -1.026866 -7.125591 7.953479 -1.707771 2.390314 4.627219 -3.799426 9.727208 -0.081028 3.073352 -6.724781 4.829306 2.465893 24.417668 -8.005390 5.140720 7.110050 2.340038 -12.239096 1.040212 3.534332 -26.312173 2.620249 20.891883 -21.191123 -3.348202 -4.676503 3.254069 -0.122200 1.061860 -0.720220 0.446620 -1.020169 9.629814 0.957510 12.917567 31.454858 3.735053 -31.155328 25.971224 -8.773554 1.585349 -2.219014 -0.388870 0.223730 -0.082680 -0.196760 
0.672430 16.898180 -1.458980 -8.438544 7.104234 8.055529 -15.220336 12.740044 2.174772 0.079969 -0.713537 -7.372229 -2.040327 5.089766 16.606456 -0.695743 4.764172 3.411380 0.651710 0.141650 0.548210 18.478493 -9.601417 4.393661 0.755363 9.009675 -43.032237 9.805259 -3.549170 12.964417 0.299925 -2.390088 3.694941 0.390870 0.853980 0.530660 -3.928340 -1.312777 -7.322304 9.235056 -2.433306 6.546862 4.116110 -4.084319 10.136803 0.031098 2.749784 -7.128389 4.172793 1.924278 25.307191 -8.601190 5.168610 3.304590 1.082152 -12.699195 1.136858 3.437291 -24.436078 1.657545 21.438039 -26.560404 -3.953881 -4.434309 3.238913 0.008370 0.886850 -0.532470 0.417440 -0.087708 10.330556 1.817802 12.851844 26.979623 0.201307 -35.702751 34.938339 -11.723709 1.483016 -2.084550 -0.299370 0.188000 -0.161880 -0.233630 
0.767720 16.861630 -1.489790 -7.996792 7.460432 6.498033 -15.143836 12.711201 2.215306 -1.387024 -0.763848 -7.517227 -0.942909 5.169342 20.100744 -0.679420 4.924780 3.290467 0.702630 0.197720 0.639830 18.543275 -9.595605 4.600127 -1.530727 9.319586 -45.523017 11.587743 -5.489851 20.996099 0.087877 -3.296287 3.317096 0.395510 0.740660 0.524900 -4.147915 -1.234301 -7.556785 12.061802 -3.658366 10.553628 1.814389 -4.613008 10.773467 0.464268 2.385270 -7.311202 3.610601 1.987111 26.074428 -9.623960 5.816040 0.686700 3.193711 -11.600666 1.064184 -0.846166 -22.733104 1.531749 21.658407 -36.032668 -5.239289 -4.262820 3.212308 0.096700 0.807980 -0.433800 0.380960 -3.165714 9.360113 2.140517 19.351873 27.479827 -0.260657 -40.509303 39.017209 -15.228980 1.400359 -1.992964 -0.275960 0.191110 -0.181570 -0.275220 
0.847860 16.858900 -1.487040 -6.651310 6.788813 4.484382 -15.183154 12.784416 2.391885 -4.148487 -1.088685 -7.718421 0.947674 5.163725 25.796126 -0.521975 5.348902 3.056808 0.746730 0.256140 0.699090 18.494258 -9.458232 4.660341 -4.638445 8.803803 -45.871298 15.353311 -8.048607 26.834687 -0.213781 -4.505899 2.851853 0.358760 0.601910 0.529200 -4.014866 -1.697754 -7.825961 11.501025 -4.711410 15.727796 2.149737 -5.427629 11.371274 0.401655 1.859636 -7.599315 2.674696 3.298245 28.129126 -9.628890 7.156310 -2.546260 3.814250 -10.892638 1.846408 -6.533369 -19.310579 0.349934 21.722614 -44.769009 -7.041649 -4.049517 3.204912 0.206230 0.685060 -0.300420 0.348910 -3.507499 9.281695 1.781230 24.373525 28.945895 -1.352712 -44.115671 44.651519 -19.010323 1.339326 -1.778499 -0.211870 0.163300 -0.201140 -0.293090 
0.921830 16.856270 -1.464710 -4.190851 5.435931 2.887117 -15.357797 12.898835 2.813593 -7.310901 -2.310912 -9.049137 0.943456 5.813763 32.659787 -0.324090 6.236084 2.687215 0.755770 0.224640 0.811680 18.304829 -9.271234 4.433862 -6.757664 7.417729 -44.005913 16.935257 -9.434898 28.985946 -0.389516 -5.049359 2.624619 0.300810 0.449590 0.506650 -3.462714 -2.549176 -8.070653 7.666200 -4.562488 20.564556 3.983118 -5.453090 11.798837 0.759724 1.823152 -8.102899 2.436547 3.324152 30.357900 -11.515150 8.334840 -5.875160 2.304655 -11.085425 2.538475 -11.298086 -16.590721 -1.296168 18.495416 -51.672770 -7.619072 -3.876274 3.131914 0.368850 0.554750 -0.178770 0.287110 -2.503007 10.253730 2.065060 28.152981 28.160473 -3.941784 -43.797118 51.686979 -21.562442 1.270812 -1.496208 -0.220570 0.155340 -0.216460 -0.367550 
0.991010 16.827760 -1.460820 -1.488809 4.239584 3.336861 -15.514562 12.665103 3.381538 -10.572891 -5.128745 -13.691011 -0.096360 6.876603 40.572383 0.025503 7.309349 2.261603 0.805960 0.292060 0.869720 18.193335 -8.957125 4.254848 -8.642405 6.291967 -43.897172 17.632595 -10.115470 29.672309 -0.485502 -5.297133 2.530326 0.278550 0.329060 0.512060 -3.045533 -3.094275 -8.341328 3.982159 -4.210790 23.577161 5.740096 -5.453071 11.196471 0.790133 1.888799 -8.409250 2.569411 4.114521 31.607768 -12.530500 10.050410 -7.461430 1.164248 -9.946903 3.222920 -18.279705 -13.871140 -2.678944 11.230964 -60.587572 -6.510121 -3.736875 3.270010 0.403380 0.475910 -0.084770 0.289020 -1.281144 9.763676 1.847815 34.301162 28.934095 -4.865659 -42.281252 56.825586 -23.140981 1.262559 -1.376722 -0.150010 0.088340 -0.283670 -0.372050 
1.056190 16.792860 -1.474240 0.031137 1.253643 3.209626 -15.577520 12.237276 4.066040 -11.234539 -8.933811 -19.603857 -3.699472 10.003333 49.711970 0.412099 9.173094 1.559116 0.826200 0.311500 0.904480 18.182689 -8.741772 3.996328 -8.256272 6.201044 -43.079973 16.126273 -9.931023 30.549243 -0.534856 -5.157215 2.538328 0.258920 0.214440 0.501990 -2.910499 -3.202609 -8.640490 3.094662 -3.683082 27.959202 4.973245 -4.509797 10.061701 1.010163 1.629186 -8.378832 2.189560 5.062168 32.310311 -12.271730 10.730820 -11.791520 -1.292235 -8.466689 3.283280 -23.406245 -11.813323 -3.884604 -6.034216 -67.393158 1.596915 -3.678359 3.410962 0.539620 0.358540 0.011520 0.239140 0.533122 8.811000 1.906672 41.490799 27.900791 -6.966407 -31.641277 63.683806 -20.392878 1.286647 -1.351498 -0.141560 0.081510 -0.264100 -0.413280 
1.117530 16.726440 -1.497590 0.818572 -1.501211 3.810649 -15.650417 11.596886 4.934679 -8.953450 -13.496788 -27.923387 -9.840919 15.883677 59.109665 1.115263 11.713771 0.709735 0.902910 0.396720 1.017420 18.190148 -8.485848 3.711435 -6.410070 6.580315 -42.816427 12.770043 -8.954314 31.264762 -0.566661 -4.676921 2.659967 0.228680 0.006870 0.500720 -2.810791 -3.063240 -9.014336 3.041546 -3.074569 31.342882 4.333978 -3.217814 8.734113 1.646034 1.888565 -8.933453 2.670880 4.341068 34.265992 -13.337360 11.286640 -15.698440 -3.876258 -7.968880 3.679180 -29.074110 -9.612819 -5.435477 -27.292831 -69.943626 14.418711 -3.558381 3.565569 0.637970 0.196320 0.168530 0.205860 1.554877 8.586640 2.720308 49.018183 25.595669 -8.807511 -18.049455 64.584964 -14.102008 1.505266 -1.556597 -0.052560 0.000750 -0.340590 -0.437980 
1.196740 16.635250 -1.515080 0.610462 -6.382403 5.440303 -15.719092 10.858493 5.721927 -2.845121 -16.338777 -38.658128 -17.156348 24.272397 66.441619 1.807721 14.703082 -0.104843 0.856730 0.302710 1.048600 18.225286 -8.033213 3.712777 -4.356719 8.328659 -44.171078 9.693688 -7.938807 32.502231 -0.545512 -4.296166 2.821858 0.171140 -0.034590 0.413550 -2.801878 -2.842020 -9.445858 4.210662 -1.802142 33.892760 4.013679 -0.646321 6.167988 1.762980 1.069490 -9.159713 1.110406 3.630253 35.771944 -12.975380 10.294580 -17.761560 -7.789077 -7.413746 3.694582 -36.428164 -7.742635 -6.779579 -40.672604 -68.241308 21.784946 -3.533088 3.434444 0.773340 0.099460 0.197470 0.169830 4.830724 9.473650 3.396471 53.397253 21.042033 -11.735949 -9.091112 64.468118 -9.589402 1.621895 -1.543571 -0.133110 0.082130 -0.324440 -0.488280 
1.295290 16.532660 -1.506630 -0.271158 -9.290995 7.563752 -15.778968 10.107034 6.468824 5.188781 -17.224431 -48.801134 -25.494703 34.029438 71.208660 2.589333 17.353989 -0.746684 0.868790 0.294870 1.082350 18.275019 -7.500232 3.810849 -2.868735 10.043021 -46.126200 7.519248 -7.485648 34.212603 -0.615209 -4.193156 2.829392 0.102810 -0.140360 0.440360 -2.870066 -2.686836 -9.906220 6.393839 -2.074160 35.388681 3.020777 0.608949 3.115226 2.239852 0.597510 -8.843157 0.089544 3.297994 38.021809 -12.947490 9.944220 -20.235800 -13.143891 -6.290686 3.319408 -42.520969 -4.703483 -8.631628 -46.059596 -65.592921 23.546943 -3.485543 3.430045 0.844010 -0.005660 0.286450 0.139140 8.997608 8.933044 3.231154 57.328130 16.752450 -13.750059 -5.467536 61.271473 -6.964086 1.747823 -1.523769 -0.066180 0.019530 -0.333570 -0.491440 
1.395060 16.390520 -1.448700 -0.974435 -13.013452 10.736976 -15.850868 9.279840 7.068068 12.052590 -15.619296 -57.944712 -31.782628 43.070522 74.083586 3.196794 19.099479 -1.050127 0.837550 0.244380 1.031810 18.344011 -6.857255 4.164099 -2.164665 12.464953 -50.085776 5.883365 -7.239829 36.860103 -0.656626 -4.424392 2.754315 0.045960 -0.156400 0.450320 -3.020080 -2.387382 -10.360667 8.302188 -1.545496 34.495410 1.686498 2.345381 -0.575177 2.536310 0.064962 -7.739702 -1.038577 3.129335 38.642238 -12.140340 9.671720 -17.900180 -19.993650 -3.803016 1.958108 -46.276226 -2.101140 -9.594386 -45.839652 -62.274714 22.071727 -3.480631 3.460632 0.817230 -0.024760 0.269160 0.148020 14.998386 7.126209 2.586783 58.402198 11.165169 -15.102199 -3.588354 57.489163 -4.861396 1.829873 -1.559555 -0.030920 -0.063770 -0.341750 -0.468220 
